<svg xmlns="http://www.w3.org/2000/svg" version="1.0" width="300.000000pt" height="69.000000pt" viewBox="0 0 300.000000 69.000000" preserveAspectRatio="xMidYMid meet">
<metadata fill="#ffffff">
Created by potrace 1.10, written by Peter Selinger 2001-2011
</metadata>
<g transform="translate(0.000000,69.000000) scale(0.100000,-0.100000)" fill="#ffffff" stroke="none">
<path d="M142 621 c-35 -37 -101 -170 -109 -216 -7 -41 39 -145 81 -184 l25 -24 -19 -38 c-26 -50 -25 -71 4 -98 22 -20 34 -22 137 -23 157 -2 198 23 250 146 21 53 26 57 63 63 22 3 51 17 63 29 30 30 24 55 -34 151 -81 133 -112 151 -249 140 -69 -5 -74 -4 -89 19 -46 71 -82 81 -123 35z m88 -45 c16 -25 30 -53 30 -63 0 -10 -25 -65 -55 -122 -30 -57 -55 -111 -55 -120 0 -9 7 -27 16 -39 8 -12 11 -22 5 -22 -25 0 -101 135 -101 180 0 39 95 230 115 230 8 0 28 -20 45 -44z m239 -49 c27 -9 46 -30 88 -97 78 -124 75 -117 57 -134 -19 -19 -103 -22 -126 -3 -8 6 -39 53 -68 102 -62 104 -73 115 -114 115 -40 0 -22 17 24 23 66 7 105 6 139 -6z m-78 -157 c32 -52 58 -101 58 -107 1 -10 -31 -13 -129 -13 -149 0 -146 -2 -104 83 86 170 93 172 175 37z m75 -198 c-57 -95 -61 -97 -195 -100 -157 -5 -168 7 -94 106 l24 32 126 0 c104 0 130 3 145 17 10 9 19 23 19 32 1 9 4 6 6 -7 3 -14 -9 -44 -31 -80z" fill="#ffffff"/>
<path d="M1532 567 c-17 -18 -22 -36 -22 -75 0 -48 -12 -74 -25 -53 -11 20 -69 41 -109 41 -23 0 -60 -9 -83 -19 -41 -19 -42 -19 -60 1 -15 16 -25 19 -58 13 -22 -3 -55 -6 -73 -5 -22 0 -40 -7 -56 -23 l-24 -24 -43 28 c-69 47 -169 35 -217 -26 -23 -29 -28 -70 -12 -95 6 -10 3 -24 -11 -46 -36 -59 -17 -139 41 -169 33 -17 112 -20 139 -5 12 6 29 5 49 -2 22 -8 37 -9 54 -2 13 6 35 7 50 3 21 -5 33 -2 53 16 23 22 25 31 25 105 0 85 10 120 35 120 12 0 15 -14 15 -63 0 -51 5 -71 27 -104 54 -84 152 -109 237 -59 42 25 44 25 60 7 26 -28 53 -31 81 -9 23 18 25 25 25 111 1 95 12 127 43 127 23 0 25 -7 31 -116 5 -90 8 -101 31 -121 24 -21 28 -22 54 -8 16 8 31 21 35 30 5 13 11 12 45 -11 79 -52 152 -49 224 8 l39 30 26 -25 c72 -69 208 -62 264 14 l20 27 42 -44 c46 -47 84 -57 120 -29 16 12 23 12 49 -2 22 -11 46 -14 91 -9 34 3 66 6 71 7 6 1 24 -2 40 -6 45 -10 80 23 70 67 -4 18 -10 73 -13 123 -5 54 -14 103 -24 121 -34 63 -130 82 -214 43 l-45 -22 -24 23 c-13 12 -26 34 -30 48 -8 34 -33 62 -54 62 -28 0 -59 -29 -66 -62 -9 -39 -26 -68 -40 -68 -6 0 -28 9 -50 20 -69 35 -155 21 -211 -35 l-26 -27 -32 31 c-37 36 -74 51 -125 51 -40 0 -110 -31 -124 -55 -12 -22 -28 -18 -63 16 -26 25 -44 33 -91 38 -55 6 -58 7 -61 36 -4 34 -38 75 -62 75 -9 0 -26 -10 -38 -23z m59 -91 l-3 -79 27 21 c40 32 117 31 150 -3 24 -23 25 -30 25 -150 l0 -125 -25 0 -25 0 0 111 c0 133 -6 149 -60 149 -75 0 -96 -44 -87 -176 l6 -84 -24 0 -25 0 0 211 0 210 23 -3 c21 -3 22 -6 18 -82z m949 11 l0 -54 30 5 c27 4 30 2 30 -23 0 -25 -2 -27 -30 -21 l-31 6 3 -108 3 -107 28 -3 c19 -2 27 -9 27 -23 0 -16 -7 -19 -39 -19 -61 0 -71 22 -71 151 0 102 -1 107 -20 102 -16 -4 -20 0 -20 22 0 22 4 26 20 22 18 -5 20 0 20 49 0 51 1 54 25 54 24 0 25 -3 25 -53z m-1320 -67 c0 -20 -4 -28 -13 -24 -24 9 -66 -14 -82 -45 -10 -21 -15 -58 -15 -121 0 -89 0 -90 -25 -90 l-25 0 0 150 0 150 25 0 c22 0 25 -5 25 -32 l0 -33 19 32 c18 28 34 37 79 42 7 0 12 -11 12 -29z m245 -10 c13 -13 28 -35 34 -51 9 -27 8 -29 -15 -29 -14 0 -27 7 -31 18 -17 48 -75 68 -124 42 -46 -25 -62 -105 -33 -166 31 -65 121 -66 152 -1 9 18 21 27 38 27 24 0 24 0 9 -37 -26 -63 -81 -92 -150 -79 -109 21 -151 176 -72 263 52 56 140 62 192 13z m-504 17 c31 -23 39 -56 39 -151 0 -79 3 -96 15 -96 8 0 15 -9 15 -20 0 -15 -7 -20 -30 -20 -16 0 -33 7 -38 16 -8 14 -13 13 -46 -7 -49 -29 -111 -22 -143 16 -55 63 -8 131 102 150 54 10 75 22 75 43 0 29 -21 42 -65 42 -44 0 -65 -13 -65 -42 0 -13 -8 -18 -25 -18 -35 0 -33 34 4 71 26 25 36 29 88 29 32 0 65 -6 74 -13z m1094 -9 c31 -24 55 -74 55 -115 l0 -28 -115 3 c-127 4 -131 2 -100 -58 28 -54 120 -63 152 -14 9 14 25 24 39 24 24 0 24 -1 9 -30 -47 -90 -186 -90 -239 0 -42 70 -15 198 46 228 41 19 122 14 153 -10z m306 6 c36 -18 69 -83 69 -134 0 -47 -32 -114 -64 -135 -62 -41 -155 -24 -199 36 -46 64 -26 192 37 230 38 23 115 25 157 3z m484 -9 c23 -23 25 -31 25 -130 0 -87 3 -105 15 -105 8 0 15 -9 15 -20 0 -15 -7 -20 -30 -20 -17 0 -33 7 -39 17 -9 17 -11 17 -29 -1 -49 -44 -150 -25 -169 31 -21 61 25 114 110 128 58 10 77 22 77 49 0 26 -17 36 -61 36 -41 0 -69 -17 -69 -40 0 -15 -7 -20 -25 -20 -35 0 -33 34 4 71 26 26 36 29 91 29 51 0 65 -4 85 -25z m-1415 -91 l35 -36 -42 -39 c-43 -40 -65 -43 -90 -11 -18 22 -16 73 3 100 22 32 54 27 94 -14z m1191 -22 c-5 -10 -16 -26 -25 -37 -14 -19 -15 -17 -16 31 0 61 9 73 32 44 12 -15 15 -27 9 -38z" fill="#ffffff"/>
<path d="M927 294 c-3 -3 -25 -10 -49 -15 -52 -12 -78 -34 -78 -66 0 -49 114 -52 140 -3 20 38 10 107 -13 84z" fill="#ffffff"/>
<path d="M1909 371 c-49 -50 -41 -56 65 -53 84 3 94 5 89 20 -24 67 -103 84 -154 33z" fill="#ffffff"/>
<path d="M2216 369 c-48 -56 -29 -163 33 -189 43 -17 96 2 117 42 23 44 14 121 -16 153 -36 38 -100 35 -134 -6z m106 -26 c20 -18 24 -73 8 -104 -15 -26 -75 -26 -90 0 -38 73 26 155 82 104z" fill="#ffffff"/>
<path d="M2757 280 c-32 -10 -64 -24 -72 -30 -23 -19 -18 -48 10 -66 22 -14 32 -15 65 -5 22 6 42 17 46 23 10 16 22 98 15 97 -3 0 -32 -9 -64 -19z" fill="#ffffff"/>
</g>
</svg>