<svg id="SvgjsSvg1001" width="288" height="288" xmlns="http://www.w3.org/2000/svg" version="1.1" xmlns:xlink="http://www.w3.org/1999/xlink" xmlns:svgjs="http://svgjs.com/svgjs"><defs id="SvgjsDefs1002"></defs><g id="SvgjsG1008"><svg xmlns="http://www.w3.org/2000/svg" data-name="Layer 2" viewBox="0 0 362.31 69.07" width="288" height="288"><g data-name="Layer 1"><path fill="#ffffff" d="M105.34 27.21c-3.52 0-5.99.56-7.41 1.69-1.42 1.13-2.23 3.06-2.42 5.8h-5.87c.2-3.86 1.57-6.93 4.11-9.21 2.54-2.27 6.41-3.41 11.59-3.41 4.01 0 7.26.92 9.76 2.75 2.5 1.83 3.74 4.86 3.74 9.06v18.2c0 1.47.21 2.53.62 3.19.42.66 1.26.99 2.53.99.44 0 .81-.02 1.1-.07v4.11c-1.17.39-2.32.59-3.45.59-1.86 0-3.31-.36-4.37-1.06-1.05-.71-1.82-2.04-2.31-4h-.15c-1.22 1.81-2.9 3.22-5.03 4.22-2.13 1-4.68 1.5-7.67 1.5-3.77 0-6.76-.98-8.99-2.94-2.23-1.96-3.34-4.52-3.34-7.71 0-2.74.64-4.92 1.91-6.53 1.27-1.61 3.02-2.85 5.25-3.71 2.23-.86 5.17-1.63 8.84-2.31 2.4-.44 4.21-.86 5.43-1.25 1.22-.39 2.15-.93 2.79-1.61.64-.68.95-1.64.95-2.86 0-3.62-2.54-5.43-7.63-5.43zM109.59 53.81c2.25-1.74 3.38-4.32 3.38-7.74v-6.24c-.98.98-3.86 1.96-8.66 2.94-3.82.83-6.54 1.81-8.18 2.94-1.64 1.13-2.46 2.76-2.46 4.92 0 3.86 2.35 5.8 7.04 5.8 3.67 0 6.63-.87 8.88-2.61zM147.31 22.3v5.87h-.15c-.78-.15-1.54-.22-2.27-.22-3.42 0-6.2 1.2-8.33 3.6-2.13 2.4-3.19 5.41-3.19 9.03v19.96h-5.87V23.1h5.87v7.41h.15c1.08-2.69 2.43-4.77 4.07-6.24 1.64-1.47 3.73-2.2 6.27-2.2 1.27 0 2.42.07 3.45.22zM174.9 30.08c-1.71-1.91-4.28-2.86-7.71-2.86-4.11 0-7.18 1.44-9.21 4.33-2.03 2.89-3.04 6.31-3.04 10.27s1.01 7.39 3.04 10.27c2.03 2.89 5.1 4.33 9.21 4.33 3.47 0 6.05-.95 7.74-2.86 1.69-1.91 2.63-4.18 2.83-6.82h5.87c-.15 2.84-.95 5.38-2.42 7.63-1.47 2.25-3.41 4.01-5.83 5.28-2.42 1.27-5.15 1.91-8.18 1.91-3.62 0-6.8-.83-9.54-2.5-2.74-1.66-4.86-3.99-6.35-6.97-1.49-2.98-2.24-6.41-2.24-10.27s.75-7.29 2.24-10.27c1.49-2.98 3.61-5.31 6.35-6.97 2.74-1.66 5.92-2.49 9.54-2.49 3.03 0 5.74.62 8.11 1.87 2.37 1.25 4.28 2.97 5.72 5.17 1.44 2.2 2.31 4.7 2.6 7.48h-5.87c-.2-2.45-1.15-4.62-2.86-6.53zM216.65 25.2c2.35 2.08 3.52 5.15 3.52 9.21v26.12h-5.87v-24.66c0-2.59-.66-4.68-1.98-6.27-1.32-1.59-3.38-2.38-6.16-2.38-3.28 0-5.93.93-7.96 2.79-2.03 1.86-3.04 4.26-3.04 7.19v23.33h-5.87V8.06h5.87v19.52h.15c1.17-1.56 2.79-2.87 4.84-3.93 2.05-1.05 4.55-1.58 7.48-1.58 3.67 0 6.68 1.04 9.03 3.12zM251.58 54.07c1.76-1.57 2.86-3.25 3.3-5.06h5.87c-1.03 3.72-2.95 6.74-5.76 9.06-2.81 2.32-6.42 3.49-10.82 3.49-3.72 0-6.96-.82-9.72-2.46-2.76-1.64-4.88-3.95-6.35-6.93-1.47-2.98-2.2-6.43-2.2-10.35 0-6.16 1.61-10.99 4.84-14.49 3.23-3.5 7.61-5.25 13.13-5.25s10.13 1.86 13.06 5.58c2.94 3.72 4.4 8.95 4.4 15.7h-29.57c0 2.35.46 4.51 1.39 6.49.93 1.98 2.31 3.57 4.15 4.77 1.83 1.2 4.05 1.8 6.64 1.8 3.33 0 5.87-.78 7.63-2.35zM237.67 28.68c-1.83.98-3.28 2.31-4.33 4-1.05 1.69-1.58 3.53-1.58 5.54h23.7c0-2.01-.48-3.85-1.43-5.54-.95-1.69-2.31-3.02-4.07-4-1.76-.98-3.79-1.47-6.09-1.47s-4.37.49-6.2 1.47zM283.35 61.55c-3.77 0-7.03-.83-9.8-2.5-2.76-1.66-4.88-3.99-6.35-6.97-1.47-2.98-2.2-6.41-2.2-10.27s.73-7.29 2.2-10.27c1.47-2.98 3.58-5.31 6.35-6.97 2.76-1.66 6.03-2.49 9.8-2.49s6.96.83 9.72 2.49c2.76 1.66 4.88 3.99 6.35 6.97 1.47 2.98 2.2 6.41 2.2 10.27s-.73 7.29-2.2 10.27c-1.47 2.98-3.58 5.31-6.35 6.97-2.76 1.66-6.01 2.5-9.72 2.5zM283.35 56.42c4.01 0 7.08-1.37 9.21-4.11 2.13-2.74 3.19-6.24 3.19-10.49s-1.06-7.75-3.19-10.49c-2.13-2.74-5.2-4.11-9.21-4.11s-7.09 1.37-9.25 4.11c-2.15 2.74-3.23 6.24-3.23 10.49s1.08 7.75 3.23 10.49c2.15 2.74 5.23 4.11 9.25 4.11zM315.78 28.24v22.53c0 1.76.42 2.98 1.25 3.67.83.69 2.2 1.03 4.11 1.03.83 0 1.49-.02 1.98-.07v5.14c-1.32.29-2.79.44-4.4.44-2.79 0-4.95-.71-6.49-2.13-1.54-1.42-2.31-3.91-2.31-7.48v-23.11h-5.5v-5.14h5.5v-12.47h5.87v12.47h7.34v5.14h-7.34zM344.55 27.21c-3.52 0-5.99.56-7.41 1.69-1.42 1.13-2.23 3.06-2.42 5.8h-5.87c.2-3.86 1.57-6.93 4.11-9.21 2.54-2.27 6.41-3.41 11.59-3.41 4.01 0 7.26.92 9.76 2.75 2.5 1.83 3.74 4.86 3.74 9.06v18.2c0 1.47.21 2.53.62 3.19.42.66 1.26.99 2.53.99.44 0 .81-.02 1.1-.07v4.11c-1.17.39-2.32.59-3.45.59-1.86 0-3.31-.36-4.37-1.06-1.05-.71-1.82-2.04-2.31-4h-.15c-1.22 1.81-2.9 3.22-5.03 4.22-2.13 1-4.68 1.5-7.67 1.5-3.77 0-6.76-.98-8.99-2.94-2.23-1.96-3.34-4.52-3.34-7.71 0-2.74.64-4.92 1.91-6.53 1.27-1.61 3.02-2.85 5.25-3.71 2.23-.86 5.17-1.63 8.84-2.31 2.4-.44 4.21-.86 5.43-1.25 1.22-.39 2.15-.93 2.79-1.61.64-.68.95-1.64.95-2.86 0-3.62-2.54-5.43-7.63-5.43zM348.8 53.81c2.25-1.74 3.38-4.32 3.38-7.74v-6.24c-.98.98-3.86 1.96-8.66 2.94-3.82.83-6.54 1.81-8.18 2.94-1.64 1.13-2.46 2.76-2.46 4.92 0 3.86 2.35 5.8 7.04 5.8 3.67 0 6.63-.87 8.88-2.61z" class="color1d1d1d svgShape"></path><g><path fill="#ffffff" d="M67.88,42.06c2.63-.11,4.16-3.02,2.77-5.25l-12.86-20.55c-2.51-4.02-6.95-5.48-11.47-5.75-4.41-.26-9.18-.02-13.55.63-3.35.5-5.61,1.63-8.08,3.92,3.32-3.07,9.26-2.84,12.43.39,1.64,1.67,2.79,4.33,4.03,6.32,3.71,5.97,7.41,11.93,11.12,17.9h0c1.15,1.84,3.19,2.93,5.36,2.84l10.26-.43Z" class="color1d1d1d svgShape"></path><path fill="#ffffff" d="M9.16,63.86c-1.31,2.28.34,5.13,2.97,5.14l24.25.07c4.74.01,8.34-2.96,10.98-6.64,2.58-3.59,4.91-7.76,6.69-11.8,1.37-3.1,1.61-5.62.99-8.92.83,4.44-2.53,9.35-6.95,10.31-2.28.49-5.15.05-7.49.04-7.02-.04-14.05-.09-21.07-.13h0c-2.17-.01-4.18,1.14-5.26,3.03l-5.11,8.91Z" class="color1d1d1d svgShape"></path><path fill="#ffffff" d="M18.51,1.59c-1.42-2.22-4.7-2.08-5.93.24L1.27,23.28C-.95,27.47.01,32.04,2.05,36.09s4.59,7.94,7.35,11.4c2.11,2.65,4.23,4.03,7.44,5.02-4.32-1.33-7.11-6.58-5.9-10.94.62-2.25,2.34-4.59,3.44-6.65,3.3-6.2,6.59-12.4,9.89-18.6h0c1.02-1.92.93-4.23-.24-6.06L18.51,1.59Z" class="color1d1d1d svgShape"></path></g></g></svg></g></svg>