<?xml version="1.0" encoding="utf-8"?>
<svg
  xmlns="http://www.w3.org/2000/svg"
  viewBox="800 370 350 330"
  width="100"
  height="100"
  xml:space="preserve"
>
  <style type="text/css">
    .st0{fill:#1D1D1D;}
  </style>
  <g>
    <path class="st0" d="M1105.2,574.1c11.8-0.5,18.7-13.6,12.5-23.6l-57.8-92.4c-11.3-18.1-31.2-24.6-51.6-25.8
      c-19.8-1.2-41.3-0.1-60.9,2.8c-15.1,2.2-25.2,7.3-36.3,17.6c14.9-13.8,41.6-12.8,55.9,1.8c7.4,7.5,12.5,19.5,18.1,28.4
      c16.7,26.8,33.3,53.6,50,80.5l0,0c5.2,8.3,14.3,13.2,24.1,12.8L1105.2,574.1L1105.2,574.1z"/>
    <path class="st0" d="M841.3,672.1c-5.9,10.2,1.5,23.1,13.4,23.1l109,0.3c21.3,0,37.5-13.3,49.4-29.8c11.6-16.1,22.1-34.9,30.1-53
      c6.2-13.9,7.2-25.3,4.5-40.1c3.7,20-11.4,42-31.2,46.3c-10.2,2.2-23.1,0.2-33.7,0.2c-31.6-0.2-63.2-0.4-94.7-0.6l0,0
      c-9.8,0-18.8,5.1-23.6,13.6L841.3,672.1L841.3,672.1z"/>
    <path class="st0" d="M883.3,392.2c-6.4-10-21.1-9.3-26.7,1.1l-50.8,96.4c-10,18.8-5.7,39.4,3.5,57.6c9.2,18.2,20.6,35.7,33,51.2
      c9.5,11.9,19,18.1,33.4,22.6c-19.4-6-32-29.6-26.5-49.2c2.8-10.1,10.5-20.6,15.5-29.9c14.8-27.9,29.6-55.7,44.5-83.6l0,0
      c4.6-8.6,4.2-19-1.1-27.2L883.3,392.2z"/>
  </g>
</svg>
