<svg xmlns="http://www.w3.org/2000/svg" viewBox="0 0 300 300" width="300" height="300">
  <g transform="translate(0.000000,240.000000) scale(0.100000,-0.100000)" fill="#000000" stroke="none">
    <path d="M142 621 c-35 -37 -101 -170 -109 -216 -7 -41 39 -145 81 -184 l25
    -24 -19 -38 c-26 -50 -25 -71 4 -98 22 -20 34 -22 137 -23 157 -2 198 23 250
    146 21 53 26 57 63 63 22 3 51 17 63 29 30 30 24 55 -34 151 -81 133 -112 151
    -249 140 -69 -5 -74 -4 -89 19 -46 71 -82 81 -123 35z m88 -45 c16 -25 30 -53
    30 -63 0 -10 -25 -65 -55 -122 -30 -57 -55 -111 -55 -120 0 -9 7 -27 16 -39 8
    -12 11 -22 5 -22 -25 0 -101 135 -101 180 0 39 95 230 115 230 8 0 28 -20 45
    -44z m239 -49 c27 -9 46 -30 88 -97 78 -124 75 -117 57 -134 -19 -19 -103 -22
    -126 -3 -8 6 -39 53 -68 102 -62 104 -73 115 -114 115 -40 0 -22 17 24 23 66
    7 105 6 139 -6z m-78 -157 c32 -52 58 -101 58 -107 1 -10 -31 -13 -129 -13
    -149 0 -146 -2 -104 83 86 170 93 172 175 37z m75 -198 c-57 -95 -61 -97 -195
    -100 -157 -5 -168 7 -94 106 l24 32 126 0 c104 0 130 3 145 17 10 9 19 23 19
    32 1 9 4 6 6 -7 3 -14 -9 -44 -31 -80z"/>
  </g>
</svg>
